<svg xmlns="http://www.w3.org/2000/svg" viewBox="0 0 300 300" width="512" height="512"><path d="M253.428 8.709C248.11.773 237.729-.107 229.026.01c-52.447.236-104.914.1-157.385.059C68.63.162 65.624.32 62.657.9c-9.628 1.6-17.55 9.688-19.241 19.238-1.545 9.416-.655 19.025-.773 28.52-.02 77.041.059 154.084-.059 231.125.217 4.752.389 9.938 3.336 13.943 4.645 6.346 14.056 7.93 20.924 4.516 4.139-2.254 7.203-5.924 10.287-9.377 22.539-26.607 45.973-52.461 68.467-79.113 2.484-2.818 5.396-5.904 9.516-5.672 16.225-.832 32.49.545 48.736-.291 5.516-.289 11.262-1.865 15.262-5.879 5.451-5.357 7.144-13.141 8.871-20.305 9.219-44.688 17.568-89.563 26.822-134.25 2.175-11.277 5.398-24.301-1.377-34.646zm-40.471 72.382c-1.339 4.432-7.105 4.133-10.986 4.447-19.508.389-39.02-.469-58.508.094-5.959-.232-12.404 3.512-12.773 9.977-1.264 8.059-.752 20.496 9.358 22.268 19.099 2.135 38.454-.703 57.573 1.146 6.366.191 6.484 7.705 5.49 12.344-2.189 11.232-3.857 22.646-7.139 33.643-.836 3.641-4.295 5.551-7.842 5.58-16.113 1.348-32.324-.557-48.432.59-6.604.094-10.539 6.018-14.445 10.465-16.246 19.971-32.59 39.848-49.362 59.379-.659-62.832.06-125.689-.368-188.541.137-4.699-.1-9.609 1.627-14.076 2.471-5.201 8.971-5.068 13.865-5.34 38.258.041 76.535.139 114.797-.039 6.346.195 13.022-.859 14.676 4.793 2.19 7.481-4.557 33.423-7.531 43.27z" data-original="#000000" class="active-path" data-old_color="#000000" fill="#FFF"/></svg>